<?xml version="1.0" encoding="UTF-8" standalone="no"?>
<svg
   xml:space="preserve"
   width="16"
   height="16"
   version="1.0"
   viewBox="0 0 2.4 2.4"
   id="svg2"
   sodipodi:docname="AudioStreamPlayer.svg"
   inkscape:version="1.4 (1:1.4+202410161351+e7c3feb100)"
   xmlns:inkscape="http://www.inkscape.org/namespaces/inkscape"
   xmlns:sodipodi="http://sodipodi.sourceforge.net/DTD/sodipodi-0.dtd"
   xmlns="http://www.w3.org/2000/svg"
   xmlns:svg="http://www.w3.org/2000/svg"><defs
     id="defs2" /><sodipodi:namedview
     id="namedview2"
     pagecolor="#505050"
     bordercolor="#ffffff"
     borderopacity="1"
     inkscape:showpageshadow="0"
     inkscape:pageopacity="0"
     inkscape:pagecheckerboard="1"
     inkscape:deskcolor="#d1d1d1"
     showgrid="false"
     inkscape:zoom="51.3125"
     inkscape:cx="8.0097442"
     inkscape:cy="8"
     inkscape:window-width="1920"
     inkscape:window-height="1027"
     inkscape:window-x="0"
     inkscape:window-y="0"
     inkscape:window-maximized="1"
     inkscape:current-layer="svg2" /><path
     id="path1"
     d="M 1.2518555 0.15 A 0.1 0.1 0 0 0 1.1701172 0.17988281 L 0.6 0.75 L 0.31787109 0.75 C 0.22487109 0.75 0.15 0.817 0.15 0.9 L 0.15 1.5 C 0.15 1.583 0.22487109 1.65 0.31787109 1.65 L 0.6 1.65 L 1.1701172 2.2201172 C 1.2361172 2.2871172 1.35 2.2399961 1.35 2.1459961 L 1.35 0.25605469 A 0.106 0.106 0 0 0 1.2518555 0.15 z M 0.31845703 0.87597656 L 1.1912109 0.87597656 L 1.1912109 1.5298828 L 0.31845703 1.5298828 L 0.31845703 0.87597656 z M 0.75791016 0.95683594 C 0.61269813 0.95683589 0.48157451 0.96398559 0.45556641 0.98349609 C 0.44743731 0.98891069 0.43842281 0.99320125 0.43300781 1.0007812 C 0.40645521 1.0360032 0.40269922 1.0856745 0.40107422 1.2 C 0.40269932 1.3143326 0.40645501 1.3642933 0.43300781 1.3995117 C 0.43842281 1.4076388 0.44743741 1.4116718 0.45556641 1.4170898 C 0.48157452 1.4371399 0.61269813 1.4432531 0.75791016 1.4443359 C 0.90312224 1.4432529 1.0284295 1.4371398 1.0549805 1.4170898 C 1.0625645 1.4116718 1.0717802 1.4076417 1.0766602 1.3995117 C 1.1037502 1.3642934 1.1080997 1.3143326 1.1091797 1.2 C 1.1080967 1.0856742 1.1037472 1.0360032 1.0766602 1.0007812 C 1.0717852 0.99320105 1.0625605 0.98891109 1.0549805 0.98349609 C 1.0284292 0.96398599 0.90312224 0.95683594 0.75791016 0.95683594 z M 0.59882812 1.0283203 C 0.68393519 1.0283206 0.73151719 1.0809492 0.73886719 1.1704102 L 0.65244141 1.1704102 C 0.64973341 1.1341412 0.63155739 1.1135742 0.60292969 1.1135742 C 0.57082199 1.1135742 0.55136719 1.1477224 0.55136719 1.2149414 C 0.55136719 1.2637824 0.55973064 1.3098633 0.60615234 1.3098633 C 0.63555314 1.3098633 0.64954534 1.2840526 0.65302734 1.2506836 L 0.74091797 1.2506836 C 0.73279429 1.3406313 0.68141136 1.3948242 0.60791016 1.3948242 C 0.51584107 1.3948242 0.45996094 1.3242876 0.45996094 1.2111328 C 0.45996094 1.0984613 0.52107122 1.0283203 0.59882812 1.0283203 z M 0.90234375 1.0283203 C 0.98745205 1.0283203 1.035032 1.0809485 1.0423828 1.1704102 L 0.95566406 1.1704102 C 0.95295806 1.1341412 0.93477934 1.1135742 0.90615234 1.1135742 C 0.87404614 1.1135742 0.85458984 1.1477224 0.85458984 1.2149414 C 0.85458984 1.2637824 0.86324637 1.3098633 0.90966797 1.3098633 C 0.93906897 1.3098633 0.95277 1.2840526 0.95625 1.2506836 L 1.0441406 1.2506836 C 1.0360205 1.3406313 0.98463481 1.3948242 0.91113281 1.3948242 C 0.81906302 1.3948242 0.76347656 1.3242876 0.76347656 1.2111328 C 0.76347656 1.0984613 0.82458575 1.0283203 0.90234375 1.0283203 z "
     style="fill:#e0e0e0;fill-opacity:1" /><path
     fill="none"
     stroke="#e0e0e0"
     stroke-linecap="round"
     stroke-linejoin="round"
     stroke-width=".165"
     d="M1.575.675c.45.525 0 1.05 0 1.05m.3-1.35c.675.825 0 1.65 0 1.65"
     paint-order="markers stroke fill"
     id="path2" /></svg>
