<?xml version="1.0" encoding="UTF-8" standalone="no"?>
<svg
   xml:space="preserve"
   width="16"
   height="16"
   version="1.0"
   viewBox="0 0 2.4 2.4"
   id="svg2"
   sodipodi:docname="AudioStreamPlayer3D.svg"
   inkscape:version="1.4 (1:1.4+202410161351+e7c3feb100)"
   xmlns:inkscape="http://www.inkscape.org/namespaces/inkscape"
   xmlns:sodipodi="http://sodipodi.sourceforge.net/DTD/sodipodi-0.dtd"
   xmlns="http://www.w3.org/2000/svg"
   xmlns:svg="http://www.w3.org/2000/svg"><defs
     id="defs2" /><sodipodi:namedview
     id="namedview2"
     pagecolor="#505050"
     bordercolor="#ffffff"
     borderopacity="1"
     inkscape:showpageshadow="0"
     inkscape:pageopacity="0"
     inkscape:pagecheckerboard="1"
     inkscape:deskcolor="#d1d1d1"
     inkscape:zoom="51.3125"
     inkscape:cx="8.0097442"
     inkscape:cy="8"
     inkscape:window-width="1920"
     inkscape:window-height="1027"
     inkscape:window-x="0"
     inkscape:window-y="0"
     inkscape:window-maximized="1"
     inkscape:current-layer="svg2" /><path
     id="path1"
     d="M 1.2518555 0.15 A 0.1 0.1 0 0 0 1.1701172 0.17988281 L 0.6 0.75 L 0.31787109 0.75 C 0.22487109 0.75 0.15 0.817 0.15 0.9 L 0.15 1.5 C 0.15 1.583 0.22487109 1.65 0.31787109 1.65 L 0.6 1.65 L 1.1701172 2.2201172 C 1.2361172 2.2871172 1.35 2.2399961 1.35 2.1459961 L 1.35 0.25605469 A 0.106 0.106 0 0 0 1.2518555 0.15 z M 0.31464844 0.88652344 L 1.1871094 0.88652344 L 1.1871094 1.5404297 L 0.31464844 1.5404297 L 0.31464844 0.88652344 z M 0.75410156 0.96738281 C 0.60888953 0.96738281 0.47776591 0.97453247 0.45175781 0.99404297 C 0.44362871 0.99945747 0.43461422 1.0037481 0.42919922 1.0113281 C 0.40264622 1.0465501 0.39889062 1.0962214 0.39726562 1.2105469 C 0.39889073 1.3248795 0.40264642 1.3748406 0.42919922 1.4100586 C 0.43461422 1.4181896 0.44362881 1.4219237 0.45175781 1.4273437 C 0.47776591 1.4473897 0.60888953 1.4538028 0.75410156 1.4548828 C 0.89931369 1.4537998 1.0246209 1.4473937 1.0511719 1.4273437 C 1.0587559 1.4219257 1.0679716 1.4181886 1.0728516 1.4100586 C 1.0999406 1.3748403 1.1042911 1.3248795 1.1053711 1.2105469 C 1.1042891 1.0962218 1.0999386 1.0465501 1.0728516 1.0113281 C 1.0679766 1.0037479 1.0587519 0.99945797 1.0511719 0.99404297 C 1.0246206 0.97453287 0.89931369 0.96738281 0.75410156 0.96738281 z M 0.59501953 1.0388672 C 0.68012668 1.0388672 0.72770859 1.091496 0.73505859 1.180957 L 0.64833984 1.180957 C 0.64563184 1.144688 0.62745582 1.1241211 0.59882812 1.1241211 C 0.56672053 1.1241211 0.54755859 1.1582693 0.54755859 1.2254883 C 0.54755859 1.2743283 0.55592205 1.3204102 0.60234375 1.3204102 C 0.63174455 1.3204102 0.64573675 1.2945995 0.64921875 1.2612305 L 0.73710937 1.2612305 C 0.72898569 1.3511775 0.67760276 1.4053711 0.60410156 1.4053711 C 0.51203244 1.4053711 0.45615234 1.3348345 0.45615234 1.2216797 C 0.45615234 1.1090074 0.51726263 1.0388672 0.59501953 1.0388672 z M 0.89853516 1.0388672 C 0.98364338 1.0388672 1.0312242 1.091496 1.0385742 1.180957 L 0.95185547 1.180957 C 0.94914997 1.144688 0.93097105 1.1241211 0.90234375 1.1241211 C 0.87023755 1.1241211 0.85078125 1.1582693 0.85078125 1.2254883 C 0.85078125 1.2743283 0.85943777 1.3204102 0.90585937 1.3204102 C 0.93526007 1.3204102 0.94896241 1.2945995 0.95244141 1.2612305 L 1.040332 1.2612305 C 1.0322119 1.3511775 0.98082612 1.4053711 0.90732422 1.4053711 C 0.81525441 1.4053711 0.759375 1.3348345 0.759375 1.2216797 C 0.759375 1.1090074 0.82077716 1.0388672 0.89853516 1.0388672 z "
     style="stroke-width:1.00005;stroke-dasharray:none;fill:#fc7d7d;fill-opacity:1" /><path
     fill="none"
     stroke="#fc7f7f"
     stroke-linecap="round"
     stroke-linejoin="round"
     stroke-width=".165"
     d="M1.575.675c.45.525 0 1.05 0 1.05m.3-1.35c.675.825 0 1.65 0 1.65"
     paint-order="markers stroke fill"
     id="path2" /></svg>
