<?xml version="1.0" encoding="UTF-8" standalone="no"?>
<svg
   xml:space="preserve"
   width="16"
   height="16"
   version="1.0"
   viewBox="0 0 2.4 2.4"
   id="svg2"
   sodipodi:docname="AudioStreamPlayer2D.svg"
   inkscape:version="1.4 (1:1.4+202410161351+e7c3feb100)"
   xmlns:inkscape="http://www.inkscape.org/namespaces/inkscape"
   xmlns:sodipodi="http://sodipodi.sourceforge.net/DTD/sodipodi-0.dtd"
   xmlns="http://www.w3.org/2000/svg"
   xmlns:svg="http://www.w3.org/2000/svg"><defs
     id="defs2" /><sodipodi:namedview
     id="namedview2"
     pagecolor="#505050"
     bordercolor="#ffffff"
     borderopacity="1"
     inkscape:showpageshadow="0"
     inkscape:pageopacity="0"
     inkscape:pagecheckerboard="1"
     inkscape:deskcolor="#d1d1d1"
     inkscape:zoom="51.3125"
     inkscape:cx="8.0097442"
     inkscape:cy="8"
     inkscape:window-width="1920"
     inkscape:window-height="1027"
     inkscape:window-x="0"
     inkscape:window-y="0"
     inkscape:window-maximized="1"
     inkscape:current-layer="svg2" /><path
     id="path1"
     d="M 1.2518555 0.15 A 0.1 0.1 0 0 0 1.1701172 0.17988281 L 0.6 0.75 L 0.31787109 0.75 C 0.22487109 0.75 0.15 0.817 0.15 0.9 L 0.15 1.5 C 0.15 1.583 0.22487109 1.65 0.31787109 1.65 L 0.6 1.65 L 1.1701172 2.2201172 C 1.2361172 2.2871172 1.35 2.2399961 1.35 2.1459961 L 1.35 0.25605469 A 0.106 0.106 0 0 0 1.2518555 0.15 z M 0.30849609 0.87861328 L 1.18125 0.87861328 L 1.18125 1.5325195 L 0.30849609 1.5325195 L 0.30849609 0.87861328 z M 0.74824219 0.95947266 C 0.60303019 0.95947266 0.47190654 0.96662231 0.44589844 0.98613281 C 0.43776934 0.99154731 0.42846187 0.99583794 0.42304687 1.003418 C 0.39649387 1.0386399 0.39273828 1.0883113 0.39111328 1.2026367 C 0.39273838 1.3169694 0.39649407 1.3669304 0.42304687 1.4021484 C 0.42846187 1.4102794 0.43776944 1.4143066 0.44589844 1.4197266 C 0.47190654 1.4397726 0.60303019 1.4461856 0.74824219 1.4472656 C 0.89345429 1.4461826 1.0187615 1.4397766 1.0453125 1.4197266 C 1.0528965 1.4143086 1.0621122 1.4102784 1.0669922 1.4021484 C 1.0940812 1.3669301 1.0981387 1.3169694 1.0992187 1.2026367 C 1.0981368 1.0883118 1.0940792 1.03864 1.0669922 1.003418 C 1.0621172 0.99583774 1.0528925 0.99154781 1.0453125 0.98613281 C 1.0187612 0.96662271 0.89345429 0.95947266 0.74824219 0.95947266 z M 0.58916016 1.030957 C 0.67426766 1.030957 0.72184922 1.0835859 0.72919922 1.1730469 L 0.64248047 1.1730469 C 0.63977247 1.1367779 0.62159675 1.1162109 0.59296875 1.1162109 C 0.56086115 1.1162109 0.54140625 1.1503591 0.54140625 1.2175781 C 0.54140625 1.2664181 0.55006267 1.3125 0.59648437 1.3125 C 0.62588437 1.3125 0.63987937 1.2866893 0.64335937 1.2533203 L 0.73095703 1.2533203 C 0.72283333 1.3432673 0.67145022 1.3974609 0.59794922 1.3974609 C 0.50588006 1.3974609 0.45029297 1.3269243 0.45029297 1.2137695 C 0.45029297 1.1010973 0.51140326 1.030957 0.58916016 1.030957 z M 0.89238281 1.030957 C 0.97749132 1.030957 1.0250719 1.0835859 1.0324219 1.1730469 L 0.94570312 1.1730469 C 0.94299713 1.1367779 0.92481841 1.1162109 0.89619141 1.1162109 C 0.86408541 1.1162109 0.84492187 1.1503591 0.84492187 1.2175781 C 0.84492188 1.2664181 0.85328503 1.3125 0.89970703 1.3125 C 0.92910803 1.3125 0.94310203 1.2866893 0.94658203 1.2533203 L 1.0344727 1.2533203 C 1.0263526 1.3432673 0.97467387 1.3974609 0.90117187 1.3974609 C 0.80910218 1.3974609 0.75351562 1.3269243 0.75351562 1.2137695 C 0.75351562 1.1010973 0.81462481 1.030957 0.89238281 1.030957 z "
     style="fill:#8ba3f3;fill-opacity:1" /><path
     fill="none"
     stroke="#8da5f3"
     stroke-linecap="round"
     stroke-linejoin="round"
     stroke-width=".165"
     d="M1.575.675c.45.525 0 1.05 0 1.05m.3-1.35c.675.825 0 1.65 0 1.65"
     paint-order="markers stroke fill"
     id="path2"
     style="stroke:#8da5f3;stroke-opacity:1" /></svg>
