<?xml version="1.0" encoding="UTF-8" standalone="no"?>
<svg
   width="16"
   height="16"
   version="1.1"
   id="svg1"
   sodipodi:docname="gas_scroll_container.svg"
   inkscape:version="1.3.2 (1:1.3.2+202311252150+091e20ef0f)"
   xmlns:inkscape="http://www.inkscape.org/namespaces/inkscape"
   xmlns:sodipodi="http://sodipodi.sourceforge.net/DTD/sodipodi-0.dtd"
   xmlns="http://www.w3.org/2000/svg"
   xmlns:svg="http://www.w3.org/2000/svg">
  <defs
     id="defs1" />
  <sodipodi:namedview
     id="namedview1"
     pagecolor="#505050"
     bordercolor="#ffffff"
     borderopacity="1"
     inkscape:showpageshadow="0"
     inkscape:pageopacity="0"
     inkscape:pagecheckerboard="1"
     inkscape:deskcolor="#d1d1d1"
     inkscape:zoom="51.5"
     inkscape:cx="8"
     inkscape:cy="7.3592233"
     inkscape:window-width="1920"
     inkscape:window-height="1027"
     inkscape:window-x="0"
     inkscape:window-y="0"
     inkscape:window-maximized="1"
     inkscape:current-layer="svg1" />
  <path
     id="path1"
     d="M 3 1 A 2 2 0 0 0 1 3 L 1 13 A 2 2 0 0 0 3 15 L 13 15 A 2 2 0 0 0 15 13 L 15 3 A 2 2 0 0 0 13 1 L 3 1 z M 3 3 L 13 3 L 13 13 L 3 13 L 3 3 z M 7.5605469 3.8691406 C 7.3927633 4.2186898 7.2308854 4.572076 7.0722656 4.9277344 L 6 6 L 6.6074219 6 C 6.4431415 6.3869521 6.2770766 6.782944 6.109375 7.1972656 C 6.0735641 7.2884206 6.0361421 7.3857046 6 7.4785156 L 6 6 L 4 8 L 5.3066406 9.3066406 C 5.0797954 9.9118118 4.8395266 10.557025 4.5839844 11.259766 L 5.6621094 11.259766 L 6.0820312 10.082031 L 8 12 L 9.9277344 10.072266 C 9.956285 10.155063 9.9856133 10.23996 10.013672 10.322266 C 10.120339 10.628044 10.23458 10.939765 10.355469 11.259766 L 11.486328 11.259766 C 11.223795 10.5378 10.976385 9.8748434 10.744141 9.2558594 L 12 8 L 10 6 L 10 7.3261719 C 9.9830743 7.2840941 9.9661097 7.2389963 9.9492188 7.1972656 C 9.7864112 6.7828465 9.623745 6.3870367 9.4609375 6 L 10 6 L 9.0546875 5.0546875 C 8.8784282 4.6559316 8.6974973 4.2602483 8.5097656 3.8691406 L 7.5605469 3.8691406 z M 7.5898438 6 L 8.4160156 6 C 8.5132882 6.2382198 8.6077321 6.4793993 8.7011719 6.7265625 C 8.9287279 7.3025637 9.1572096 7.9008632 9.3847656 8.5195312 L 6.6328125 8.5195312 C 6.8532574 7.9008632 7.0725238 7.3025637 7.2929688 6.7265625 C 7.3894788 6.4792556 7.4894964 6.2383531 7.5898438 6 z M 6.3339844 9.3730469 L 9.6835938 9.3730469 C 9.7587708 9.5844823 9.8302712 9.7916691 9.9023438 10 L 6.1113281 10 L 6.3339844 9.3730469 z "
     style="fill:#8eef97;fill-opacity:1" />
</svg>
